<svg width="1200" height="800" viewBox="0 0 1200 800" fill="none" xmlns="http://www.w3.org/2000/svg" role="img" aria-labelledby="title desc">
  <title id="title">Client intake CRM product mockup</title>
  <desc id="desc">A polished CRM interface with an intake form, AI triage panel, pipeline cards, and activity timeline.</desc>
  <rect width="1200" height="800" fill="#f8fafc"/>
  <rect x="74" y="66" width="1052" height="668" rx="30" fill="#ffffff" stroke="#dbe3ef" stroke-width="2"/>
  <rect x="74" y="66" width="252" height="668" rx="30" fill="#0f172a"/>
  <path d="M326 66V734" stroke="#dbe3ef" stroke-width="2"/>
  <circle cx="126" cy="118" r="15" fill="#2563eb"/>
  <text x="156" y="125" fill="#ffffff" font-family="Arial, Helvetica, sans-serif" font-size="20" font-weight="800">Intake CRM</text>
  <rect x="112" y="178" width="178" height="42" rx="14" fill="#1e293b"/>
  <rect x="112" y="240" width="128" height="16" rx="8" fill="#64748b"/>
  <rect x="112" y="282" width="158" height="16" rx="8" fill="#334155"/>
  <rect x="112" y="324" width="142" height="16" rx="8" fill="#334155"/>
  <rect x="112" y="366" width="170" height="16" rx="8" fill="#334155"/>
  <rect x="112" y="622" width="170" height="54" rx="18" fill="#1d4ed8"/>
  <text x="146" y="655" fill="#ffffff" font-family="Arial, Helvetica, sans-serif" font-size="15" font-weight="800">New request</text>

  <text x="374" y="126" fill="#0f172a" font-family="Arial, Helvetica, sans-serif" font-size="28" font-weight="800">Client requests</text>
  <text x="374" y="158" fill="#64748b" font-family="Arial, Helvetica, sans-serif" font-size="16">AI-assisted intake, routing, and follow-up</text>
  <rect x="914" y="104" width="146" height="42" rx="21" fill="#eff6ff"/>
  <text x="946" y="131" fill="#1d4ed8" font-family="Arial, Helvetica, sans-serif" font-size="15" font-weight="800">Auto triage</text>

  <rect x="374" y="202" width="340" height="296" rx="22" fill="#ffffff" stroke="#e2e8f0"/>
  <text x="406" y="250" fill="#0f172a" font-family="Arial, Helvetica, sans-serif" font-size="22" font-weight="800">Smart intake form</text>
  <rect x="406" y="284" width="244" height="42" rx="12" fill="#f8fafc" stroke="#e2e8f0"/>
  <rect x="406" y="346" width="244" height="42" rx="12" fill="#f8fafc" stroke="#e2e8f0"/>
  <rect x="406" y="408" width="276" height="58" rx="12" fill="#f8fafc" stroke="#e2e8f0"/>
  <rect x="426" y="299" width="118" height="12" rx="6" fill="#94a3b8"/>
  <rect x="426" y="361" width="158" height="12" rx="6" fill="#94a3b8"/>
  <rect x="426" y="426" width="214" height="12" rx="6" fill="#94a3b8"/>
  <rect x="426" y="446" width="176" height="12" rx="6" fill="#cbd5e1"/>

  <rect x="748" y="202" width="312" height="296" rx="22" fill="#f8fafc" stroke="#e2e8f0"/>
  <text x="780" y="250" fill="#0f172a" font-family="Arial, Helvetica, sans-serif" font-size="22" font-weight="800">AI summary</text>
  <rect x="780" y="284" width="96" height="28" rx="14" fill="#dcfce7"/>
  <text x="806" y="303" fill="#15803d" font-family="Arial, Helvetica, sans-serif" font-size="13" font-weight="800">Sales</text>
  <rect x="894" y="284" width="98" height="28" rx="14" fill="#fef3c7"/>
  <text x="914" y="303" fill="#b45309" font-family="Arial, Helvetica, sans-serif" font-size="13" font-weight="800">Medium</text>
  <rect x="780" y="342" width="238" height="14" rx="7" fill="#94a3b8"/>
  <rect x="780" y="374" width="202" height="14" rx="7" fill="#cbd5e1"/>
  <rect x="780" y="406" width="226" height="14" rx="7" fill="#cbd5e1"/>
  <path d="M792 456H1008" stroke="#2563eb" stroke-width="8" stroke-linecap="round"/>
  <circle cx="930" cy="456" r="16" fill="#ffffff" stroke="#2563eb" stroke-width="6"/>

  <rect x="374" y="532" width="686" height="140" rx="22" fill="#ffffff" stroke="#e2e8f0"/>
  <text x="406" y="581" fill="#0f172a" font-family="Arial, Helvetica, sans-serif" font-size="22" font-weight="800">Pipeline</text>
  <rect x="406" y="610" width="132" height="34" rx="17" fill="#dbeafe"/>
  <rect x="560" y="610" width="132" height="34" rx="17" fill="#e0f2fe"/>
  <rect x="714" y="610" width="132" height="34" rx="17" fill="#ecfdf5"/>
  <rect x="868" y="610" width="132" height="34" rx="17" fill="#fef3c7"/>
  <text x="442" y="632" fill="#1d4ed8" font-family="Arial, Helvetica, sans-serif" font-size="14" font-weight="800">New 18</text>
  <text x="592" y="632" fill="#0369a1" font-family="Arial, Helvetica, sans-serif" font-size="14" font-weight="800">Review 9</text>
  <text x="748" y="632" fill="#15803d" font-family="Arial, Helvetica, sans-serif" font-size="14" font-weight="800">Won 6</text>
  <text x="906" y="632" fill="#b45309" font-family="Arial, Helvetica, sans-serif" font-size="14" font-weight="800">Follow 4</text>
</svg>
